<svg width="13" height="16" viewBox="0 0 13 16" fill="none" xmlns="http://www.w3.org/2000/svg">
<path fill-rule="evenodd" clip-rule="evenodd" d="M0 2C0 0.895432 0.970049 0 2.16667 0H7.1346C7.70924 0 8.26034 0.210714 8.66667 0.585786L12.3654 4C12.7717 4.37507 13 4.88378 13 5.41421V14C13 15.1046 12.03 16 10.8333 16H2.16667C0.970049 16 0 15.1046 0 14V2ZM2.16667 8C2.16667 7.44772 2.65169 7 3.25 7H9.75C10.3483 7 10.8333 7.44772 10.8333 8C10.8333 8.55229 10.3483 9 9.75 9H3.25C2.65169 9 2.16667 8.55229 2.16667 8ZM3.25 11C2.65169 11 2.16667 11.4477 2.16667 12C2.16667 12.5523 2.65169 13 3.25 13H9.75C10.3483 13 10.8333 12.5523 10.8333 12C10.8333 11.4477 10.3483 11 9.75 11H3.25Z" fill="currentColor"/>
</svg>
