<svg width="32" height="32" viewBox="0 0 32 32" fill="none" xmlns="http://www.w3.org/2000/svg">
<path fill-rule="evenodd" clip-rule="evenodd" d="M6.4 8C4.63269 8 3.2 9.43269 3.2 11.2V24C3.2 25.7673 4.63269 27.2 6.4 27.2H25.6C27.3673 27.2 28.8 25.7673 28.8 24V11.2C28.8 9.43269 27.3673 8 25.6 8H23.0627C22.6384 8 22.2314 7.83143 21.9314 7.53137L20.1373 5.73726C19.5371 5.13714 18.7232 4.8 17.8745 4.8H14.1255C13.2768 4.8 12.4629 5.13714 11.8627 5.73726L10.0686 7.53137C9.76857 7.83143 9.36161 8 8.93726 8H6.4ZM16 22.4C18.651 22.4 20.8 20.251 20.8 17.6C20.8 14.949 18.651 12.8 16 12.8C13.349 12.8 11.2 14.949 11.2 17.6C11.2 20.251 13.349 22.4 16 22.4Z" fill="white"/>
</svg>
