<svg width="164" height="164" viewBox="0 0 164 164" fill="none" xmlns="http://www.w3.org/2000/svg">
<circle cx="82" cy="82" r="82" fill="#F5FBF7"/>
<mask id="mask0_226_2988" style="mask-type:alpha" maskUnits="userSpaceOnUse" x="0" y="0" width="164" height="164">
<circle cx="82" cy="82" r="82" fill="#F5FBF7"/>
</mask>
<g mask="url(#mask0_226_2988)">
<circle cx="30.5" cy="45.5" r="38.5" fill="#E8F5ED"/>
<circle cx="151.5" cy="125.5" r="38.5" fill="#E8F5ED"/>
<rect x="25" y="42" width="114" height="139" rx="16" fill="white"/>
<rect x="44" y="114" width="76" height="6" rx="3" fill="#ABDBBE"/>
<rect x="52" y="128" width="60" height="6" rx="3" fill="#ABDBBE"/>
<circle cx="82" cy="78" r="20" fill="#E8F5ED"/>
<mask id="mask1_226_2988" style="mask-type:alpha" maskUnits="userSpaceOnUse" x="62" y="58" width="40" height="40">
<circle cx="82" cy="78" r="20" fill="#E8F5ED"/>
</mask>
<g mask="url(#mask1_226_2988)">
<circle cx="76" cy="69" r="3" fill="#57B77D"/>
<rect x="76.3451" y="78" width="46.9393" height="32.1164" transform="rotate(34.8344 76.3451 78)" fill="#ABDBBE"/>
<rect x="87.3451" y="73" width="46.9393" height="32.1164" transform="rotate(34.8344 87.3451 73)" fill="#57B77D"/>
</g>
</g>
</svg>
